<svg xmlns="http://www.w3.org/2000/svg" viewBox="0 0 512.00 349.00" fill="white">
<g transform="scale(1,1)">
<path d="M 259.00 127.50 L 252.00 127.50 L 241.00 122.50 L 228.50 111.00 L 222.50 98.00 L 220.50 85.00 L 213.50 79.00 L 209.50 66.00 L 209.50 59.00 L 216.50 52.00 L 215.50 29.00 L 221.50 14.00 L 229.00 6.50 L 250.00 -0.50 L 271.00 1.50 L 287.50 12.00 L 294.50 26.00 L 295.50 52.00 L 301.50 59.00 L 298.50 78.00 L 290.50 85.00 L 284.50 108.00 L 273.00 120.50 L 259.00 127.50 Z" />
<path d="M 309.00 235.50 L 284.00 235.50 L 271.00 230.50 L 261.50 221.00 L 255.00 202.50 L 248.50 222.00 L 238.00 231.50 L 226.00 235.50 L 201.00 235.50 L 190.00 232.50 L 180.00 226.50 L 170.50 217.00 L 146.50 180.00 L 138.00 170.50 L 139.50 184.00 L 124.00 196.50 L 105.00 207.50 L 92.00 210.50 L 61.00 208.50 L 12.00 187.50 L 2.50 178.00 L -0.50 167.00 L 23.50 108.00 L 41.50 78.00 L 58.50 56.00 L 73.00 42.50 L 112.00 32.50 L 124.00 32.50 L 128.50 37.00 L 136.50 57.00 L 136.50 69.00 L 131.00 75.50 L 117.00 79.50 L 103.00 78.50 L 87.00 69.50 L 83.50 72.00 L 75.50 86.00 L 64.50 135.00 L 55.00 156.50 L 65.00 151.50 L 78.00 133.50 L 87.00 129.50 L 102.00 130.50 L 115.00 139.50 L 132.00 127.50 L 143.00 124.50 L 160.00 124.50 L 197.00 136.50 L 202.00 131.50 L 217.00 124.50 L 223.00 117.50 L 232.00 126.50 L 253.00 138.50 L 265.00 135.50 L 279.00 126.50 L 288.00 117.50 L 295.00 125.50 L 309.00 131.50 L 314.00 136.50 L 351.00 124.50 L 367.00 124.50 L 378.00 127.50 L 391.00 134.50 L 397.00 140.50 L 410.00 130.50 L 425.00 129.50 L 437.50 138.00 L 439.50 144.00 L 446.00 151.50 L 457.00 156.50 L 446.50 134.00 L 435.50 86.00 L 427.50 72.00 L 424.00 69.50 L 408.00 78.50 L 392.00 79.50 L 380.00 75.50 L 373.50 67.00 L 373.50 60.00 L 378.50 46.00 L 387.00 32.50 L 406.00 33.50 L 441.00 44.50 L 464.50 71.00 L 489.50 111.00 L 511.50 165.00 L 508.50 179.00 L 498.00 188.50 L 465.00 204.50 L 443.00 210.50 L 422.00 210.50 L 404.00 206.50 L 386.00 195.50 L 371.50 183.00 L 373.50 171.00 L 372.00 170.50 L 339.50 218.00 L 326.00 229.50 L 309.00 235.50 Z" />
<path d="M 327.00 348.50 L 184.00 348.50 L 183.50 325.00 L 177.50 294.00 L 170.50 282.00 L 138.50 244.00 L 128.50 225.00 L 124.50 210.00 L 144.00 201.50 L 154.50 218.00 L 168.00 231.50 L 179.00 238.50 L 196.00 243.50 L 230.00 243.50 L 256.00 234.50 L 271.00 241.50 L 305.00 244.50 L 326.00 240.50 L 342.00 231.50 L 356.50 217.00 L 367.00 201.50 L 386.00 209.50 L 387.50 211.00 L 383.50 224.00 L 374.50 241.00 L 359.50 262.00 L 341.50 281.00 L 333.50 294.00 L 328.50 318.00 L 327.00 348.50 Z" />
</g></svg>
